<svg version="1.2" xmlns="http://www.w3.org/2000/svg" viewBox="0 0 512 512" width="512" height="512"><style>.a{fill:#fff}</style><path class="a" d="m230.4 167.5c-6.7 2-13.2 4.8-19.6 8.5-6.2 3.6-11.9 7.8-17 12.6l-58.1-58-16.9-16.8c-9.8-9.9-14.7-23.7-12.8-37.4 2.1-15.4 11-29.6 25.4-38 15.1-8.7 32.8-9 47.5-2.2 12 5.4 20.8 16.2 24.2 29l6 22.6z"/><path class="a" d="m189.5 192.5c-4.8 5.1-9.1 10.9-12.7 17.2-3.6 6.2-6.4 12.8-8.5 19.4l-79.3-21.2-23-6.1c-13.4-3.6-24.6-13.1-29.9-25.9-5.8-14.4-5.2-31.2 3.1-45.6 8.7-15.1 23.9-24.2 40-25.8 13.1-1.2 26.1 3.8 35.4 13.1l16.6 16.6z"/><path class="a" d="m164.1 255.9c0 7.3 0.8 14.3 2.4 21l-79.3 21.4-23 6.2c-13.4 3.6-27.8 1-38.8-7.5-12.2-9.5-20.1-24.4-20.1-41.1 0-17.4 8.6-32.8 21.8-42.3 10.7-7.6 24.4-9.8 37.1-6.4l22.7 6.1 79.7 21.4c-1.7 6.8-2.5 13.9-2.5 21.2z"/><path class="a" d="m188.9 319.3l-58 58.2-16.8 16.8c-9.9 9.8-23.7 14.8-37.4 12.9-15.4-2.1-29.6-11-38-25.5-8.7-15.1-9-32.8-2.2-47.5 5.4-12 16.2-20.7 29-24.1l22.6-6.1 79.7-21.3c2 6.7 4.8 13.3 8.5 19.6 3.6 6.3 7.8 11.9 12.6 17z"/><path class="a" d="m229.4 344.8l-21.2 79.4-6.1 23c-3.6 13.4-13.1 24.6-25.9 29.8-14.4 5.9-31.2 5.3-45.6-3.1-15.1-8.7-24.2-23.9-25.8-40-1.2-13.1 3.8-26 13.1-35.4l16.6-16.5 58.3-58.3c5.1 4.8 10.9 9 17.2 12.7 6.2 3.6 12.8 6.4 19.4 8.4z"/><path class="a" d="m297.3 487.7c-9.5 12.3-24.4 20.2-41.1 20.2-17.4 0-32.8-8.6-42.2-21.8-7.7-10.7-9.9-24.5-6.4-37.2l6-22.6 21.4-79.7c6.8 1.6 13.9 2.4 21.2 2.4 6.9 0 13.5-0.7 19.9-2.1q0.6-0.1 1.1-0.3l21.4 79.4 6.2 22.9c3.6 13.4 1 27.9-7.5 38.8z"/><path class="a" d="m407.5 436.5c-2.1 15.3-11 29.6-25.5 37.9-15.1 8.7-32.8 9-47.5 2.3-12-5.4-20.7-16.3-24.1-29l-6.1-22.6-21.3-79.7c5.2-1.6 10.4-3.7 15.4-6.2q0-0.1 0.1-0.1 0.2-0.1 0.5-0.2c7.6-3.9 14.6-8.7 20.8-14.4l58 57.8 16.8 16.8c9.8 9.8 14.8 23.6 12.9 37.4z"/><path class="a" d="m474.2 382.6c-8.7 15.1-23.8 24.1-40 25.7-13.1 1.3-26.1-3.7-35.4-13.1l-16.5-16.5-58.3-58.4c9.8-10.2 17.2-22.6 21.6-36.4l78.9 21 23 6.2c13.4 3.5 24.6 13 29.8 25.9 5.9 14.3 5.3 31.1-3.1 45.6z"/><path class="a" d="m508.1 256.9c0 17.5-8.5 32.9-21.7 42.3-10.7 7.7-24.5 9.8-37.2 6.4l-22.7-6.1-79.4-21.3c1.7-7 2.6-14.3 2.6-21.9 0-7-0.8-13.9-2.3-20.5l78.9-21.2 22.9-6.2c13.4-3.6 27.9-1 38.8 7.5 12.3 9.5 20.1 24.3 20.1 41z"/><path class="a" d="m477 178.6c-5.4 12-16.3 20.8-29 24.2l-22.6 6-79.5 21.3c-4.1-14-11.4-26.5-21-36.9l57.7-57.8 16.8-16.9c9.8-9.8 23.6-14.7 37.4-12.8 15.3 2.1 29.6 11 37.9 25.4 8.7 15.1 9 32.8 2.3 47.5z"/><path class="a" d="m395.6 114.3l-16.6 16.6-58.3 58.2c-10.2-9.7-22.7-17.1-36.6-21.3l21.1-79.1 6.1-23c3.6-13.4 13.1-24.6 26-29.9 14.3-5.8 31.1-5.2 45.6 3.1 15.1 8.7 24.1 23.9 25.7 40 1.3 13.1-3.7 26.1-13.1 35.4z"/><path class="a" d="m305.9 64l-6.1 22.6-21.4 79.7c-6.8-1.6-13.9-2.5-21.2-2.5-7.2 0-14.2 0.8-21 2.4l-21.4-79.3-6.1-23c-3.6-13.4-1-27.8 7.5-38.8 9.5-12.2 24.3-20.1 41-20.1 17.5 0 32.9 8.6 42.3 21.8 7.7 10.7 9.8 24.4 6.4 37.1z"/></svg>